<?xml version="1.0" encoding="utf-8"?>
<!-- Generator: Adobe Illustrator 25.2.3, SVG Export Plug-In . SVG Version: 6.00 Build 0)  -->
<svg version="1.1" id="Layer_1" xmlns="http://www.w3.org/2000/svg" xmlns:xlink="http://www.w3.org/1999/xlink" x="0px" y="0px"
	 viewBox="0 0 841.89 374.09" style="enable-background:new 0 0 841.89 374.09;" xml:space="preserve">
<style type="text/css">
	.st0{fill:#FFFFFF;stroke:#85519A;stroke-width:3;stroke-miterlimit:10;}
	.st1{fill:#70C2BD;}
	.st2{fill:#190101;}
	.st3{opacity:0.86;}
	.st4{fill:url(#SVGID_1_);}
	.st5{fill:url(#SVGID_2_);}
	.st6{fill:url(#SVGID_3_);}
	.st7{fill:url(#SVGID_4_);}
	.st8{fill:url(#SVGID_5_);}
	.st9{fill:url(#SVGID_6_);}
	.st10{fill:url(#SVGID_7_);}
	.st11{fill:url(#SVGID_8_);}
	.st12{fill:url(#SVGID_9_);}
	.st13{fill:url(#SVGID_10_);}
	.st14{fill:none;}
	.st15{fill:none;stroke:#F48787;stroke-width:0.25;stroke-miterlimit:10;}
	.st16{fill:#FFFFFF;}
</style>
<g>
	<circle class="st0" cx="9.07" cy="-154.68" r="2.08"/>
</g>
<path class="st1" d="M426.49,105.96l-9.76,0.8c0.51-0.07,1.01-0.14,1.52-0.18h0.03c1.12-0.14,2.2-0.28,3.32-0.41h0.08
	C423.27,106.1,424.87,106.03,426.49,105.96z"/>
<path class="st1" d="M442.38,124.19l-1.12-0.14c-0.38-0.21-0.76-0.39-1.14-0.55C440.88,123.71,441.64,123.94,442.38,124.19z"/>
<g>
	<g>
		<path class="st2" d="M286.07,79.49v5.36c-5.63,0.18-9.89,0.85-12.78,2.01c-2.9,1.16-4.84,3.31-5.83,6.43
			c-0.99,3.13-1.49,7.99-1.49,14.6v136.08c0,5.54,0.37,9.64,1.12,12.32c0.74,2.68,2.23,4.47,4.47,5.36
			c2.23,0.9,5.59,1.34,10.05,1.34h12.16c5.62,0,10.92-1.43,15.89-4.29c4.96-2.85,9.43-6.92,13.41-12.19
			c3.97-5.26,7.28-11.56,9.93-18.88c2.65-7.32,4.63-15.44,5.96-24.38h5.71c-0.5,6.07-0.74,13.93-0.74,23.57
			c0,4.11,0.08,10.09,0.25,17.95c0.16,7.86,0.66,15.99,1.49,24.38c-8.44-0.36-17.96-0.58-28.55-0.67
			c-10.59-0.09-20.03-0.13-28.3-0.13c-4.14,0-9.43,0-15.89,0c-6.45,0-13.41,0.05-20.85,0.13c-7.45,0.09-14.98,0.18-22.59,0.27
			c-7.61,0.09-14.81,0.23-21.6,0.4v-5.36c5.29-0.36,9.27-1.07,11.92-2.14c2.65-1.07,4.43-3.21,5.34-6.43
			c0.91-3.21,1.37-8.04,1.37-14.46V107.89c0-6.6-0.46-11.47-1.37-14.6c-0.91-3.12-2.73-5.27-5.46-6.43
			c-2.73-1.16-6.66-1.83-11.79-2.01v-5.36c4.13,0.18,9.72,0.36,16.76,0.54c7.03,0.18,14.52,0.27,22.47,0.27
			c7.28,0,14.44-0.09,21.47-0.27C275.6,79.85,281.43,79.67,286.07,79.49z"/>
		<path class="st2" d="M438.99,79.49v5.36c-5.3,0.18-9.31,0.85-12.04,2.01c-2.73,1.16-4.51,3.31-5.34,6.43
			c-0.83,3.13-1.24,7.99-1.24,14.6v132.87c0,6.43,0.45,11.25,1.37,14.46c0.91,3.21,2.73,5.36,5.46,6.43
			c2.73,1.07,6.66,1.79,11.79,2.14v5.36c-4.47-0.36-10.1-0.58-16.88-0.67c-6.79-0.09-13.65-0.13-20.6-0.13
			c-7.94,0-15.39,0.05-22.34,0.13c-6.95,0.09-12.58,0.31-16.88,0.67v-5.36c5.29-0.36,9.27-1.07,11.92-2.14
			c2.65-1.07,4.43-3.21,5.34-6.43c0.91-3.21,1.37-8.04,1.37-14.46V107.89c0-6.6-0.46-11.47-1.37-14.6
			c-0.91-3.12-2.73-5.27-5.46-6.43c-2.73-1.16-6.66-1.83-11.79-2.01v-5.36c4.3,0.18,9.93,0.36,16.88,0.54
			c6.95,0.18,14.4,0.27,22.34,0.27c6.95,0,13.82-0.09,20.6-0.27C428.89,79.85,434.52,79.67,438.99,79.49z"/>
		<path class="st2" d="M618.71,79.49v5.36c-5.3,0.72-9.27,2.19-11.92,4.42c-2.65,2.23-4.43,5.76-5.34,10.58
			c-0.91,4.82-1.37,11.61-1.37,20.36v149.47c-1.99-0.18-4.01-0.27-6.08-0.27c-2.07,0-4.26,0.09-6.58,0.27L479.7,122.35v102.86
			c0,9.82,0.5,17.37,1.49,22.64c0.99,5.27,3.18,9.02,6.58,11.25c3.39,2.23,8.73,3.8,16.01,4.69v5.36
			c-3.15-0.36-7.28-0.58-12.41-0.67c-5.13-0.09-9.93-0.13-14.4-0.13c-3.81,0-7.7,0.05-11.67,0.13c-3.97,0.09-7.28,0.31-9.93,0.67
			v-5.36c5.29-0.89,9.27-2.41,11.92-4.55c2.65-2.14,4.43-5.67,5.34-10.58c0.91-4.91,1.37-11.65,1.37-20.22V107.89
			c0-6.6-0.46-11.47-1.37-14.6c-0.91-3.12-2.73-5.27-5.46-6.43c-2.73-1.16-6.66-1.83-11.79-2.01v-5.36
			c2.65,0.18,5.96,0.36,9.93,0.54c3.97,0.18,7.86,0.27,11.67,0.27c3.97,0,7.78-0.09,11.42-0.27c3.64-0.18,6.95-0.36,9.93-0.54
			l96.07,127.78v-83.84c0-9.82-0.5-17.37-1.49-22.64c-0.99-5.27-3.19-9.06-6.58-11.38c-3.39-2.32-8.73-3.84-16.01-4.55v-5.36
			c3.14,0.18,7.28,0.36,12.41,0.54c5.13,0.18,9.93,0.27,14.4,0.27c3.97,0,7.9-0.09,11.79-0.27
			C612.79,79.85,616.06,79.67,618.71,79.49z"/>
		<path class="st2" d="M723.97,75.74c17.54,0,32.89,3.84,46.05,11.52c13.16,7.68,23.37,18.71,30.66,33.08
			c7.28,14.38,10.92,31.83,10.92,52.37c0,20-3.72,37.5-11.17,52.5s-17.79,26.7-31.03,35.09c-13.24,8.4-28.47,12.59-45.68,12.59
			c-17.54,0-32.89-3.84-46.05-11.52c-13.16-7.68-23.38-18.75-30.66-33.22c-7.29-14.47-10.92-31.88-10.92-52.24
			c0-20,3.76-37.5,11.29-52.5c7.53-15,17.87-26.7,31.03-35.09C691.57,79.94,706.75,75.74,723.97,75.74z M722.97,80.56
			c-9.27,0-17.34,4.02-24.2,12.05c-6.87,8.04-12.16,19.11-15.89,33.22c-3.72,14.11-5.58,30.45-5.58,49.02
			c0,18.93,2.11,35.41,6.33,49.42c4.22,14.02,9.93,24.82,17.13,32.41c7.2,7.59,15.18,11.38,23.96,11.38
			c9.27,0,17.33-4.02,24.2-12.05c6.87-8.04,12.16-19.15,15.89-33.35s5.58-30.49,5.58-48.89c0-19.11-2.11-35.63-6.33-49.56
			c-4.22-13.93-9.93-24.69-17.13-32.28C739.73,84.36,731.74,80.56,722.97,80.56z"/>
	</g>
</g>
<g class="st3">
	<linearGradient id="SVGID_1_" gradientUnits="userSpaceOnUse" x1="90.7532" y1="80.5802" x2="99.1859" y2="272.0566">
		<stop  offset="0" style="stop-color:#FFBC8C"/>
		<stop  offset="0.6796" style="stop-color:#FF9E68"/>
		<stop  offset="1" style="stop-color:#FF8E56"/>
	</linearGradient>
	<path class="st4" d="M118.78,264.05c-0.45,0.43-0.9,0.84-1.36,1.25c0.55-0.41,1.08-0.85,1.57-1.34c0.33-0.33,0.66-0.66,0.95-1.03
		C119.55,263.31,119.17,263.67,118.78,264.05z M118.27,264.05c-0.46,0.43-0.91,0.84-1.37,1.25c0.55-0.41,1.08-0.85,1.58-1.34
		C118.4,264,118.34,264.02,118.27,264.05z M114.42,267.07c0.02,0.01,0.04,0.01,0.06,0.02c0.12-0.05,0.23-0.1,0.35-0.14
		C114.7,266.99,114.56,267.04,114.42,267.07z M149.49,195.38c0,0.24,0.01,0.28,0.02,0.28C149.5,195.57,149.5,195.47,149.49,195.38z
		 M149.51,195.67c0.03,0.11,0.03,0.23,0.04,0.35C149.56,195.62,149.55,195.67,149.51,195.67z M63.11,261.18
		c-8.16-5.05-15.14-11.54-20.93-19.48c0.49,0.91,1.01,1.8,1.55,2.66c0.69,0.9,1.39,1.79,2.11,2.65c-0.55-0.78-1.09-1.56-1.59-2.39
		c4.77,6.3,10.29,11.52,16.58,15.62c-0.16-0.09-0.34-0.17-0.5-0.25c1.59,1.07,3.26,2.04,4.95,2.97c8.99,4.81,18.77,7.92,29.33,9.3
		c0.18-0.02,0.35-0.04,0.52-0.07C83.31,270.73,72.64,267.07,63.11,261.18z M110.68,79.78c-0.39-0.01-0.79-0.02-1.18-0.02
		c0.58,0.04,1.14,0.08,1.71,0.14L110.68,79.78z M149.97,162.81c0.01,0,0.01,0,0.02,0.01c0.01,0,0.03,0,0.04,0.01
		c0-0.01,0-0.02,0-0.02H149.97z"/>
	<linearGradient id="SVGID_2_" gradientUnits="userSpaceOnUse" x1="137.3451" y1="78.6006" x2="140.9116" y2="159.5823">
		<stop  offset="0" style="stop-color:#FFBC8C"/>
		<stop  offset="0.6796" style="stop-color:#FF9E68"/>
		<stop  offset="1" style="stop-color:#FF8E56"/>
	</linearGradient>
	<path class="st5" d="M167.58,158.41h-17.75c-1.1-25.23-5-44.06-11.65-56.4c-0.51-0.95-1.04-1.88-1.55-2.77
		c-4-6.69-8.47-11.67-13.43-14.91c-1.85-1.22-3.75-2.18-5.73-2.92c-0.22-0.08-0.45-0.16-0.69-0.24l-5.58-1.27l-0.52-0.12
		c1.67,0.05,3.33,0.16,4.93,0.33c0.8,0.08,1.58,0.17,2.35,0.28c2.19,0.31,4.27,0.74,6.21,1.29c0.34,0.1,0.69,0.2,1.02,0.3
		c0.19,0.09,0.38,0.19,0.58,0.29c0.55,0.29,1.09,0.58,1.62,0.88c5.09,2.87,9.78,6.42,14,10.65c2.18,2.16,4.25,4.49,6.18,6.99
		c3.54,4.54,6.72,9.65,9.52,15.34c0.84,1.68,1.61,3.4,2.35,5.21c0.57,1.37,1.1,2.77,1.6,4.23c0.17,0.48,0.34,0.96,0.5,1.45
		c0.09,0.24,0.17,0.47,0.24,0.71c0.13,0.39,0.25,0.78,0.37,1.18c0.22,0.68,0.43,1.38,0.64,2.09c0.2,0.68,0.4,1.37,0.58,2.07
		c0.16,0.55,0.3,1.11,0.43,1.68c0.14,0.48,0.26,0.97,0.37,1.46c0.22,0.88,0.42,1.8,0.61,2.7c0.22,1.03,0.43,2.07,0.64,3.13
		c0.13,0.7,0.27,1.41,0.39,2.12c0.14,0.86,0.28,1.74,0.42,2.63c0.06,0.43,0.13,0.85,0.18,1.28c0.46,3.17,0.84,6.46,1.11,9.85
		C167.55,158.09,167.57,158.25,167.58,158.41z"/>
	<linearGradient id="SVGID_3_" gradientUnits="userSpaceOnUse" x1="158.9215" y1="162.3825" x2="159.4981" y2="175.4767">
		<stop  offset="0" style="stop-color:#FFBC8C"/>
		<stop  offset="0.6796" style="stop-color:#FF9E68"/>
		<stop  offset="1" style="stop-color:#FF8E56"/>
	</linearGradient>
	<path class="st6" d="M167.8,164c0.09,2.27,0.13,4.57,0.13,6.92c0,1.41-0.02,2.8-0.05,4.19c-0.24-0.29-0.48-0.58-0.73-0.85
		c-0.13-0.13-0.24-0.27-0.37-0.41c-0.31-0.36-0.64-0.68-0.96-1c-0.08-0.09-0.17-0.18-0.26-0.27c-0.36-0.37-0.73-0.73-1.11-1.08
		c-0.09-0.08-0.16-0.15-0.25-0.23c-0.41-0.39-0.84-0.75-1.27-1.11c-0.5-0.44-1-0.84-1.51-1.23c-0.24-0.19-0.48-0.38-0.74-0.56
		c-0.16-0.12-0.32-0.23-0.49-0.35c-0.15-0.11-0.28-0.2-0.42-0.3c-0.2-0.13-0.42-0.28-0.63-0.42c-0.43-0.28-0.87-0.56-1.3-0.81
		c-0.35-0.21-0.73-0.42-1.08-0.61c-0.12-0.07-0.25-0.13-0.37-0.2c-0.5-0.28-1.01-0.53-1.51-0.76c-0.45-0.23-0.93-0.43-1.4-0.63
		c-0.08-0.02-0.13-0.05-0.21-0.08c-0.17-0.07-0.33-0.14-0.5-0.2c-0.28-0.11-0.57-0.22-0.86-0.31c-0.13-0.05-0.25-0.1-0.37-0.14
		c-0.49-0.17-0.98-0.33-1.47-0.47c0-0.09,0-0.17-0.01-0.25c0-0.01,0-0.02,0-0.02h-0.04v-0.03h17.89c0.02,0.41,0.03,0.82,0.05,1.23
		H167.8z"/>
	<linearGradient id="SVGID_4_" gradientUnits="userSpaceOnUse" x1="30.634" y1="162.2267" x2="34.1493" y2="242.0468">
		<stop  offset="0" style="stop-color:#FFBC8C"/>
		<stop  offset="0.6796" style="stop-color:#FF9E68"/>
		<stop  offset="1" style="stop-color:#FF8E56"/>
	</linearGradient>
	<path class="st7" d="M42.19,241.69c-3.19-4.35-6-9.12-8.47-14.32c-6.96-14.73-10.44-32.45-10.44-53.17c0-3.99,0.13-7.88,0.42-11.67
		h12.74c-0.05,0.48-0.08,0.97-0.11,1.44c-0.22,3.33-0.32,6.74-0.32,10.23c0,7.48,0.45,14.56,1.36,21.24
		c-0.19,0.67-0.36,1.34-0.53,2.02c-1.03,4.22-1.64,8.67-1.78,13.28c-0.02,0.58-0.03,1.16-0.03,1.74c0,0.75,0.01,1.5,0.03,2.26
		c0.01,0.46,0.03,0.93,0.05,1.39c0.39,6.97,1.88,13.55,4.21,19.46C40.17,237.72,41.13,239.75,42.19,241.69z"/>
	<linearGradient id="SVGID_5_" gradientUnits="userSpaceOnUse" x1="69.1648" y1="73.832" x2="72.809" y2="156.579">
		<stop  offset="0" style="stop-color:#FFBC8C"/>
		<stop  offset="0.6796" style="stop-color:#FF9E68"/>
		<stop  offset="1" style="stop-color:#FF8E56"/>
	</linearGradient>
	<path class="st8" d="M117.92,72.78c-0.23-0.02-0.45-0.04-0.69-0.06c-0.01,0-0.01-0.01-0.02,0c-0.01,0-0.01,0-0.02,0
		c-0.43,0.05-0.87,0.09-1.3,0.14h-0.04c-0.28,0.04-0.57,0.07-0.84,0.1c0.27-0.03,0.55-0.07,0.84-0.11c-1.94,0.09-3.83,0.18-5.64,0.3
		c-0.36,0.02-0.72,0.05-1.07,0.07c-1.06,0.07-2.07,0.16-3.04,0.25c-0.32,0.03-0.65,0.06-0.96,0.09c-0.31,0.03-0.62,0.07-0.91,0.1
		c-0.03,0-0.07,0.01-0.1,0.01c-0.26,0.03-0.52,0.07-0.78,0.1c-0.1,0.01-0.18,0.02-0.27,0.04c-0.26,0.03-0.52,0.07-0.78,0.11h-0.01
		c-0.73,0.11-1.38,0.23-1.99,0.37h-0.02c-0.34,0.05-0.68,0.14-1.01,0.21c-0.77,0.17-1.52,0.35-2.27,0.55
		c-0.05,0.01-0.1,0.02-0.14,0.03c-0.74,0.19-1.46,0.4-2.21,0.61c-0.71,0.2-1.42,0.42-2.14,0.64c-0.07,0.03-0.15,0.05-0.23,0.07
		c-0.61,0.21-1.22,0.41-1.84,0.61c-0.17,0.07-0.35,0.13-0.54,0.2c-0.32,0.11-0.65,0.22-0.97,0.35c-0.17,0.06-0.34,0.12-0.5,0.19
		c-0.16,0.06-0.31,0.12-0.46,0.18c-0.71,0.25-1.43,0.55-2.14,0.85c-0.03,0-0.04,0-0.05,0.03c-0.72,0.29-1.43,0.6-2.13,0.91h-0.02
		c-0.37,0.16-0.73,0.35-1.1,0.51c-0.7,0.33-1.4,0.67-2.1,1.03c-0.42,0.19-0.85,0.42-1.27,0.64c-0.48,0.26-0.98,0.52-1.46,0.79
		c-5.19,2.87-9.92,6.4-14.18,10.62c-0.58,0.57-1.15,1.14-1.71,1.73c-0.47,0.5-0.94,1.01-1.4,1.52c-0.19,0.21-0.38,0.43-0.57,0.64
		c-0.35,0.4-0.7,0.79-1.02,1.2c-0.13,0.14-0.25,0.28-0.36,0.43c-0.49,0.6-0.98,1.21-1.46,1.83c-0.89,1.15-1.75,2.33-2.57,3.55
		c-0.32,0.47-0.64,0.94-0.96,1.42v0.01c-0.34,0.52-0.69,1.04-1.02,1.57c-0.41,0.66-0.82,1.32-1.21,2c-1.2,2.06-2.37,4.22-3.45,6.45
		c-0.38,0.78-0.75,1.57-1.1,2.37c-0.35,0.79-0.7,1.59-1.03,2.4c0,0.01,0,0.01,0,0.03c-0.64,1.53-1.24,3.12-1.8,4.74
		c-0.27,0.77-0.53,1.57-0.8,2.38c-0.27,0.85-0.53,1.74-0.8,2.62c-0.24,0.84-0.46,1.7-0.71,2.57c0,0,0,0.01,0,0.02
		c-0.23,0.87-0.44,1.77-0.67,2.66c-0.2,0.83-0.4,1.68-0.59,2.55c-0.01,0.06-0.02,0.12-0.03,0.17c-0.19,0.92-0.39,1.84-0.57,2.79
		c-0.01,0.05-0.02,0.09-0.03,0.14c-1.31,5.43-2.27,11.11-2.88,17.04H24.08c0.84-8.13,2.33-15.79,4.49-22.97
		c0.01-0.02,0.01-0.04,0.02-0.06c1.72-7.18,3.99-13.66,6.8-19.46c4.31-8.83,9.54-16.29,15.73-22.35c4.27-4.22,8.99-7.74,14.17-10.62
		c8.96-4.95,18.7-8.14,29.18-9.59c0.5-0.07,1.02-0.13,1.53-0.19c0.03,0,0.05,0.01,0.08,0.01c0.48-0.06,0.97-0.12,1.45-0.18
		c0.06-0.01,0.12-0.01,0.18-0.02c0.34-0.04,0.7-0.07,1.05-0.1c0.06-0.01,0.12-0.01,0.17-0.02c0.72-0.06,1.43-0.11,2.15-0.16
		c1.5-0.1,3.02-0.16,4.54-0.2c0.57-0.01,1.13-0.02,1.7-0.02h0.34c0.26,0,0.53,0,0.8,0.01h0.41c0.58-0.01,1.14,0,1.71,0.01
		c0.4,0.01,0.8,0.02,1.19,0.03c0.83,0.04,1.65,0.08,2.47,0.14c0.02-0.01,0.04,0,0.05,0C115.51,72.51,116.72,72.62,117.92,72.78z"/>
</g>
<g>
	<linearGradient id="SVGID_6_" gradientUnits="userSpaceOnUse" x1="105.6815" y1="79.7954" x2="105.9034" y2="79.7954">
		<stop  offset="0" style="stop-color:#F29100"/>
		<stop  offset="1" style="stop-color:#E20613"/>
	</linearGradient>
	<path class="st9" d="M105.68,79.8l0.08,0.01c0.05,0,0.09-0.01,0.14-0.02C105.83,79.8,105.75,79.8,105.68,79.8z"/>
	<linearGradient id="SVGID_7_" gradientUnits="userSpaceOnUse" x1="50.9312" y1="161.6377" x2="52.3797" y2="194.5265">
		<stop  offset="0" style="stop-color:#F29100"/>
		<stop  offset="0.2848" style="stop-color:#EE6D05"/>
		<stop  offset="0.9145" style="stop-color:#E31311"/>
		<stop  offset="1" style="stop-color:#E20613"/>
	</linearGradient>
	<path class="st10" d="M66.61,162.53v0.07c-0.21,0.05-0.43,0.11-0.65,0.17h-0.18v0.05c-0.01,0.08-0.01,0.16-0.01,0.25
		c-0.54,0.16-1.1,0.34-1.63,0.53c-0.33,0.12-0.67,0.24-0.99,0.37c-0.75,0.28-1.47,0.6-2.19,0.93c-0.6,0.28-1.17,0.58-1.77,0.91
		c-0.84,0.45-1.67,0.94-2.49,1.47c-1.56,1.03-3.09,2.19-4.55,3.47c-0.22,0.2-0.44,0.41-0.66,0.62c-0.23,0.19-0.44,0.4-0.67,0.62
		c-1.74,1.69-3.37,3.57-4.87,5.58c-0.68,0.92-1.33,1.85-1.95,2.83c-0.04,0.08-0.11,0.16-0.16,0.24c-0.16,0.26-0.32,0.53-0.47,0.79
		c-0.88,1.43-1.68,2.92-2.42,4.46c-0.49,1.04-0.98,2.09-1.41,3.18c-0.58,1.42-1.12,2.87-1.58,4.39c-0.03,0.07-0.06,0.15-0.07,0.22
		c-0.18,0.58-0.35,1.16-0.51,1.74c-0.91-6.68-1.36-13.76-1.36-21.24c0-3.48,0.1-6.9,0.32-10.23c0.03-0.48,0.06-0.97,0.11-1.44H66.61
		z"/>
	<linearGradient id="SVGID_8_" gradientUnits="userSpaceOnUse" x1="109.968" y1="72.3385" x2="113.877" y2="161.0987">
		<stop  offset="0" style="stop-color:#F29100"/>
		<stop  offset="0.2848" style="stop-color:#EE6D05"/>
		<stop  offset="0.9145" style="stop-color:#E31311"/>
		<stop  offset="1" style="stop-color:#E20613"/>
	</linearGradient>
	<path class="st11" d="M190.69,158.41h-23.11c-0.01-0.16-0.03-0.31-0.04-0.48c-0.27-3.39-0.65-6.68-1.11-9.85
		c-0.05-0.43-0.12-0.85-0.18-1.28c-0.14-0.89-0.28-1.77-0.42-2.63c-0.12-0.71-0.26-1.42-0.39-2.12c-0.2-1.06-0.41-2.1-0.64-3.13
		c-0.18-0.9-0.38-1.82-0.61-2.7c-0.11-0.5-0.23-0.99-0.37-1.46c-0.13-0.57-0.27-1.13-0.43-1.68c-0.17-0.7-0.37-1.39-0.58-2.07
		c-0.2-0.71-0.41-1.41-0.64-2.09c-0.12-0.4-0.24-0.79-0.37-1.18c-0.07-0.24-0.15-0.47-0.24-0.71c-0.16-0.49-0.33-0.98-0.5-1.45
		c-0.5-1.45-1.04-2.85-1.6-4.23c-0.74-1.81-1.51-3.53-2.35-5.21c-2.8-5.69-5.98-10.8-9.52-15.34c-1.94-2.5-4.01-4.83-6.18-6.99
		c-4.23-4.23-8.92-7.77-14-10.65c-0.53-0.3-1.07-0.59-1.62-0.88c-0.19-0.1-0.38-0.2-0.58-0.29c-0.33-0.1-0.68-0.2-1.02-0.3
		c-1.94-0.55-4.02-0.98-6.21-1.29c-0.77-0.11-1.55-0.2-2.35-0.28c-1.6-0.16-3.26-0.27-4.93-0.33c-0.39-0.01-0.79-0.02-1.18-0.02
		h-0.11c-0.26-0.01-0.51-0.02-0.77-0.02c-0.23-0.01-0.46-0.01-0.7-0.01c-0.6,0-1.2,0.01-1.8,0.05c-0.07,0-0.15,0.01-0.22,0.01
		c-0.07,0.01-0.15,0.01-0.22,0.01l0.08,0.01c-2.43,0.17-4.79,0.64-7.05,1.42c-0.57,0.19-1.13,0.41-1.68,0.64
		c-0.42,0.17-0.85,0.36-1.27,0.56C90.4,85,85.59,89.37,81.36,95.57c-4.12,7.4-7.44,16.61-9.97,27.64
		c-2.4,10.45-3.92,22.09-4.58,34.95H36.82c0.61-5.93,1.56-11.61,2.88-17.04c0.01-0.05,0.02-0.09,0.03-0.14
		c0.17-0.95,0.37-1.87,0.57-2.79c0.01-0.05,0.02-0.11,0.03-0.17c0.18-0.87,0.38-1.72,0.59-2.55c0.22-0.89,0.43-1.79,0.67-2.66
		c0-0.01,0-0.02,0-0.02c0.24-0.87,0.46-1.73,0.71-2.57c0.26-0.88,0.52-1.77,0.8-2.62c0.26-0.8,0.52-1.6,0.8-2.38
		c0.55-1.63,1.16-3.21,1.8-4.74c0-0.02,0-0.02,0-0.03c0.33-0.8,0.68-1.6,1.03-2.4c0.35-0.79,0.72-1.58,1.1-2.37
		c1.08-2.23,2.25-4.39,3.45-6.45c0.39-0.68,0.8-1.34,1.21-2c0.33-0.54,0.68-1.06,1.02-1.57v-0.01c0.32-0.48,0.64-0.95,0.96-1.42
		c0.83-1.22,1.68-2.4,2.57-3.55c0.48-0.62,0.97-1.23,1.46-1.83c0.11-0.14,0.23-0.28,0.36-0.43c0.32-0.41,0.67-0.8,1.02-1.2
		c0.18-0.21,0.37-0.43,0.57-0.64c0.46-0.52,0.93-1.03,1.4-1.52c0.55-0.59,1.13-1.16,1.71-1.73c4.26-4.22,8.99-7.74,14.18-10.62
		c0.48-0.27,0.98-0.53,1.46-0.79c0.42-0.22,0.85-0.45,1.27-0.64c0.7-0.36,1.4-0.7,2.1-1.03c0.37-0.16,0.73-0.35,1.1-0.51h0.02
		c0.7-0.31,1.41-0.62,2.13-0.91c0.01-0.03,0.02-0.03,0.05-0.03c0.71-0.3,1.43-0.6,2.14-0.85c0.15-0.06,0.3-0.12,0.46-0.18
		c0.16-0.07,0.33-0.13,0.5-0.19c0.32-0.12,0.65-0.23,0.97-0.35c0.19-0.07,0.37-0.13,0.54-0.2c0.62-0.2,1.23-0.4,1.84-0.61
		c0.08-0.02,0.16-0.04,0.23-0.07c0.72-0.22,1.43-0.44,2.14-0.64c0.75-0.21,1.47-0.42,2.21-0.61c0.04-0.01,0.09-0.02,0.14-0.03
		c0.75-0.2,1.5-0.38,2.27-0.55c0.33-0.07,0.67-0.16,1.01-0.21h0.02c0.61-0.13,1.26-0.25,1.99-0.37h0.01c0.1,0.02,0.2,0.04,0.3,0.06
		c0.49-0.11,1-0.21,1.49-0.3c0.01-0.01,0.02-0.01,0.03-0.01c0.03,0,0.07-0.01,0.1-0.01c0.29-0.03,0.6-0.07,0.91-0.1
		c0.31-0.03,0.64-0.06,0.96-0.09c0.97-0.09,1.98-0.18,3.04-0.25c0.35-0.02,0.71-0.05,1.07-0.07c1.81-0.12,3.7-0.21,5.64-0.3
		c-0.28,0.04-0.57,0.08-0.84,0.11c0.27-0.03,0.55-0.06,0.84-0.1h0.04c0.43-0.05,0.87-0.09,1.3-0.14c0.01,0,0.01,0,0.02,0
		c0.01-0.01,0.01,0,0.02,0c0.23,0.02,0.45,0.04,0.69,0.06c0.01,0,0.01,0,0.02,0c12.35,1.34,23.48,5.06,33.35,11.17
		c12.63,7.82,22.43,19.05,29.39,33.67C186.21,129.24,189.55,142.84,190.69,158.41z"/>
	<linearGradient id="SVGID_9_" gradientUnits="userSpaceOnUse" x1="179.099" y1="161.778" x2="181.9453" y2="226.4082">
		<stop  offset="0" style="stop-color:#F29100"/>
		<stop  offset="0.2848" style="stop-color:#EE6D05"/>
		<stop  offset="0.9145" style="stop-color:#E31311"/>
		<stop  offset="1" style="stop-color:#E20613"/>
	</linearGradient>
	<path class="st12" d="M191.13,170.92c0,20.37-3.56,38.17-10.67,53.44c-0.42,0.9-0.85,1.8-1.3,2.67c0.93-3.96,1.47-8.14,1.61-12.44
		c0.03-0.7,0.04-1.4,0.04-2.11c0-0.52-0.01-1.05-0.02-1.56c-0.06-1.81-0.18-3.6-0.38-5.34c-0.05-0.52-0.1-1.03-0.18-1.52
		c-0.02-0.23-0.06-0.5-0.09-0.73c-0.07-0.49-0.15-0.95-0.24-1.44c-0.02-0.18-0.06-0.39-0.1-0.59c-0.07-0.47-0.16-0.92-0.26-1.39
		c-0.06-0.28-0.1-0.56-0.18-0.85c-0.07-0.43-0.17-0.86-0.29-1.29c-0.04-0.2-0.08-0.38-0.13-0.55c-0.09-0.41-0.19-0.82-0.31-1.22
		c-0.09-0.38-0.19-0.74-0.3-1.11c-0.09-0.34-0.2-0.65-0.3-0.98c-0.06-0.23-0.13-0.46-0.21-0.67c-0.17-0.54-0.34-1.08-0.53-1.58
		c-0.03-0.07-0.04-0.14-0.08-0.2c-0.15-0.49-0.33-0.95-0.51-1.42c-0.2-0.52-0.4-1.01-0.61-1.5c-0.17-0.4-0.34-0.8-0.52-1.19
		c-0.48-1.1-1.01-2.17-1.55-3.2c-0.2-0.38-0.4-0.75-0.63-1.12c-0.13-0.25-0.27-0.52-0.43-0.76v-0.01c-0.01-0.02-0.01-0.04-0.02-0.05
		c-0.33-0.56-0.68-1.12-1.03-1.68c-0.04-0.07-0.09-0.14-0.13-0.21c-0.32-0.5-0.65-0.96-0.98-1.45c-0.03-0.07-0.09-0.14-0.13-0.19
		c-0.33-0.49-0.68-0.95-1.04-1.42c-0.04-0.07-0.07-0.11-0.11-0.16c-0.38-0.5-0.77-0.98-1.16-1.45c-0.04-0.04-0.08-0.09-0.11-0.12
		c-0.11-0.13-0.21-0.26-0.32-0.39c0.03-1.38,0.05-2.77,0.05-4.19c0-2.35-0.04-4.65-0.13-6.92h0.13c-0.02-0.41-0.03-0.82-0.05-1.23
		h23.05c0.03,0.41,0.04,0.82,0.06,1.23C191.09,166.27,191.13,168.58,191.13,170.92z"/>
	<linearGradient id="SVGID_10_" gradientUnits="userSpaceOnUse" x1="105.3494" y1="177.5342" x2="111.3279" y2="259.4359">
		<stop  offset="0" style="stop-color:#F29100"/>
		<stop  offset="0.2248" style="stop-color:#ED6406"/>
		<stop  offset="0.462" style="stop-color:#E83B0C"/>
		<stop  offset="0.6785" style="stop-color:#E51E10"/>
		<stop  offset="0.865" style="stop-color:#E30C12"/>
		<stop  offset="1" style="stop-color:#E20613"/>
	</linearGradient>
	<path class="st13" d="M180.79,210.91c-0.06-1.81-0.18-3.6-0.38-5.34c-0.05-0.52-0.1-1.03-0.18-1.52c-0.02-0.23-0.06-0.5-0.09-0.73
		c-0.07-0.49-0.15-0.95-0.24-1.44c-0.02-0.18-0.06-0.39-0.1-0.59c-0.07-0.47-0.16-0.92-0.26-1.39c-0.06-0.28-0.1-0.56-0.18-0.85
		c-0.07-0.43-0.17-0.86-0.29-1.29c-0.04-0.2-0.08-0.38-0.13-0.55c-0.09-0.41-0.19-0.82-0.31-1.22c-0.09-0.38-0.19-0.74-0.3-1.11
		c-0.09-0.34-0.2-0.65-0.3-0.98c-0.06-0.23-0.13-0.46-0.21-0.67c-0.17-0.54-0.34-1.08-0.53-1.58c-0.03-0.07-0.04-0.14-0.08-0.2
		c-0.15-0.49-0.33-0.95-0.51-1.42c-0.2-0.52-0.4-1.01-0.61-1.5c-0.17-0.4-0.34-0.8-0.52-1.19c-0.48-1.1-1.01-2.17-1.55-3.2
		c-0.2-0.38-0.4-0.75-0.63-1.12c-0.13-0.25-0.27-0.52-0.43-0.76v-0.01c-0.01-0.02-0.01-0.04-0.02-0.05
		c-0.33-0.56-0.68-1.12-1.03-1.68c-0.04-0.07-0.09-0.14-0.13-0.21c-0.32-0.5-0.65-0.96-0.98-1.45c-0.03-0.07-0.09-0.14-0.13-0.19
		c-0.33-0.49-0.68-0.95-1.04-1.42c-0.04-0.07-0.07-0.11-0.11-0.16c-0.38-0.5-0.77-0.98-1.16-1.45c-0.04-0.04-0.08-0.09-0.11-0.12
		c-0.11-0.13-0.21-0.26-0.32-0.39c-0.24-0.29-0.48-0.58-0.73-0.85c-0.13-0.13-0.24-0.27-0.37-0.41c-0.31-0.36-0.64-0.68-0.96-1
		c-0.08-0.09-0.17-0.18-0.26-0.27c-0.36-0.37-0.73-0.73-1.11-1.08c-0.09-0.08-0.16-0.15-0.25-0.23c-0.41-0.39-0.84-0.75-1.27-1.11
		c-0.5-0.44-1-0.84-1.51-1.23c-0.24-0.19-0.48-0.38-0.74-0.56c-0.16-0.12-0.32-0.23-0.49-0.35c-0.15-0.11-0.28-0.2-0.42-0.3
		c-0.2-0.13-0.42-0.28-0.63-0.42c-0.43-0.28-0.87-0.56-1.3-0.81c-0.35-0.21-0.73-0.42-1.08-0.61c-0.12-0.07-0.25-0.13-0.37-0.2
		c-0.5-0.28-1.01-0.53-1.51-0.76c-0.45-0.23-0.93-0.43-1.4-0.63c-0.08-0.02-0.13-0.05-0.21-0.08c-0.17-0.07-0.33-0.14-0.5-0.2
		c-0.28-0.11-0.57-0.22-0.86-0.31c-0.13-0.05-0.25-0.1-0.37-0.14c-0.49-0.17-0.98-0.33-1.47-0.47c0-0.09,0-0.17-0.01-0.25
		c-0.01-0.01-0.03-0.01-0.04-0.01c-0.01-0.01-0.01-0.01-0.02-0.01c-0.04-0.01-0.07-0.02-0.11-0.03c-0.04-0.01-0.07-0.02-0.11-0.03
		c-0.66-0.19-1.3-0.36-1.97-0.49c-1.14-0.25-2.3-0.45-3.47-0.57c-1.03-0.09-2.06-0.14-3.1-0.14c-3.01,0-5.93,0.44-8.75,1.26
		c-0.13,0.03-0.25,0.07-0.38,0.11c-1.03,0.31-2.04,0.67-3.02,1.1c-1.49,0.62-2.95,1.34-4.36,2.18c-1.65,0.98-3.25,2.09-4.77,3.35
		c-4.81,3.96-8.92,9.23-12.02,15.42c-4.28-8.57-10.5-15.38-17.87-19.4c-1.87-1.02-3.78-1.85-5.78-2.49
		c-0.32-0.11-0.66-0.21-0.99-0.3c-1.27-0.37-2.57-0.66-3.9-0.87c-0.38-0.06-0.78-0.11-1.17-0.15c-1.18-0.13-2.39-0.2-3.6-0.2
		c-0.97,0-1.91,0.05-2.87,0.13c-1.75,0.16-3.45,0.48-5.13,0.92c-0.21,0.05-0.43,0.11-0.65,0.17c-0.05,0.01-0.09,0.02-0.14,0.04
		c-0.01,0-0.03,0.01-0.04,0.01c-0.01,0.08-0.01,0.16-0.01,0.25c-0.54,0.16-1.1,0.34-1.63,0.53c-0.33,0.12-0.67,0.24-0.99,0.37
		c-0.75,0.28-1.47,0.6-2.19,0.93c-0.6,0.28-1.17,0.58-1.77,0.91c-0.84,0.45-1.67,0.94-2.49,1.47c-1.56,1.03-3.09,2.19-4.55,3.47
		c-0.22,0.2-0.44,0.41-0.66,0.62c-0.23,0.19-0.44,0.4-0.67,0.62c-1.74,1.69-3.37,3.57-4.87,5.58c-0.68,0.92-1.33,1.85-1.95,2.83
		c-0.04,0.08-0.11,0.16-0.16,0.24c-0.16,0.26-0.32,0.53-0.47,0.79c-0.88,1.43-1.68,2.92-2.42,4.46c-0.49,1.04-0.98,2.09-1.41,3.18
		c-0.58,1.42-1.12,2.87-1.58,4.39c-0.03,0.07-0.06,0.15-0.07,0.22c-0.18,0.58-0.35,1.16-0.51,1.74c-0.19,0.67-0.36,1.34-0.53,2.02
		c-1.03,4.22-1.64,8.67-1.78,13.28c-0.02,0.58-0.03,1.16-0.03,1.74c0,0.75,0.01,1.5,0.03,2.26c0.01,0.46,0.03,0.93,0.05,1.39
		c0.39,6.97,1.88,13.55,4.21,19.46c0.85,2.13,1.81,4.16,2.87,6.1c5.78,7.94,12.76,14.43,20.93,19.48
		c9.52,5.89,20.2,9.56,32.02,11.01c3.86,0.48,7.84,0.71,11.95,0.71h0.05c0.59,0,1.17-0.01,1.75-0.02c1.47-0.02,2.93-0.09,4.36-0.19
		c0.86,0.06,1.73,0.1,2.59,0.13c1.48-0.1,2.95-0.24,4.4-0.42c0.12,0,0.23-0.02,0.36-0.04c10.93-1.34,20.92-4.47,29.95-9.41
		c1.6-0.87,3.15-1.81,4.65-2.79c6.41-4.26,12.08-9.66,16.99-16.24c0.32-0.43,0.63-0.84,0.94-1.27c2.66-4.66,4.73-9.92,6.03-15.61
		c0.93-3.96,1.47-8.14,1.61-12.44c0.03-0.7,0.04-1.4,0.04-2.11C180.81,211.96,180.8,211.43,180.79,210.91z M114.48,267.09
		c-0.02-0.01-0.04-0.01-0.06-0.02c0.14-0.03,0.28-0.08,0.41-0.12C114.71,266.99,114.6,267.04,114.48,267.09z M118.99,263.96
		c-0.49,0.49-1.02,0.93-1.57,1.34c0.46-0.41,0.91-0.82,1.36-1.25c0.39-0.38,0.78-0.74,1.16-1.12
		C119.65,263.3,119.32,263.63,118.99,263.96z M116.9,265.3c0.46-0.41,0.91-0.82,1.37-1.25c0.07-0.03,0.13-0.05,0.21-0.09
		C117.98,264.45,117.46,264.89,116.9,265.3z M147.93,210.65c-1.73,9.02-4.74,17.62-8.86,25.65c-1.34,2.6-2.79,5.14-4.36,7.62
		c-3.2,5.08-6.86,9.85-10.95,14.29c-1.39,1.53-2.83,3.02-4.34,4.47c-0.28,0.36-0.61,0.71-0.94,1.03c-0.5,0.5-1.03,0.93-1.58,1.34
		l-0.01,0.02c-0.99,0.71-2.08,1.31-3.25,1.76c-1.71,0.67-3.57,1.04-5.52,1.04c-3.47,0-6.65-1.15-9.12-3.09
		c-0.02-0.02-0.03-0.03-0.03-0.03c-0.27-0.21-0.52-0.43-0.78-0.65c-0.05-0.01-0.1-0.03-0.16-0.04c-0.06-0.05-0.11-0.11-0.17-0.17
		c-1.97-1.85-3.86-3.77-5.67-5.75c-6.21-6.79-11.45-14.35-15.57-22.54c-1.22-2.42-2.35-4.9-3.36-7.43
		c-3.18-7.9-5.32-16.29-6.27-25.01c-0.04-0.48-0.1-0.94-0.13-1.43c-0.04-0.36-0.08-0.73-0.11-1.1c0.03,0.43,0.07,0.85,0.1,1.28
		c-0.06-0.5-0.1-1.02-0.15-1.51c-0.13-0.83-0.22-1.67-0.24-2.53c0-0.22-0.01-0.47-0.01-0.7v-0.26c0-0.1,0-0.2,0.01-0.31
		c0-0.27,0.02-0.54,0.04-0.81c0.09-1.21,0.29-2.4,0.61-3.54c1.62-5.94,6.17-10.78,12.14-13.1c2.46-0.97,5.16-1.49,7.99-1.49
		c0.95,0,1.89,0.06,2.82,0.18c7.14,0.89,13.16,5.21,16.07,11.13c1.22,2.48,1.9,5.23,1.9,8.14c0-2.8,0.64-5.48,1.8-7.89v-0.01
		c2.01-4.27,5.63-7.71,10.12-9.69c1.5-0.66,3.1-1.17,4.77-1.47c1.33-0.25,2.7-0.39,4.11-0.39c8.14,0,15.31,4.58,18.69,10.91
		c1.08,2.02,1.78,4.23,1.99,6.51c-0.01,0.03-0.01,0.04,0,0.04l-1.56,15.54C147.93,210.65,147.93,210.65,147.93,210.65z
		 M149.55,196.01c-0.01-0.11-0.01-0.23-0.04-0.35c-0.01,0-0.02-0.04-0.02-0.28c0.01,0.09,0.01,0.18,0.02,0.28
		C149.55,195.67,149.56,195.62,149.55,196.01z"/>
</g>
<path class="st14" d="M107.66,72.23c3.64-0.07,7.19,0.14,10.69,0.52"/>
<path class="st15" d="M117.94,72.78c-0.01,0-0.01,0-0.02,0"/>
<path class="st16" d="M149.86,162.78h-0.11v-0.03C149.79,162.76,149.82,162.77,149.86,162.78z"/>
</svg>
