<svg width="22" height="22" viewBox="0 0 22 22" fill="none" xmlns="http://www.w3.org/2000/svg"><path d="M18.801 21.333h-14.8c-.067 0-.2-.066-.2-.066-.067-.067-.067-.134-.067-.2L4.401 6.2c0-.2.133-.267.333-.267h13.4c.2 0 .334.134.334.267L19.2 21c0 .067 0 .2-.067.2-.133.133-.266.133-.333.133zm-14.467-.6h14.134l-.667-14.2h-12.8l-.667 14.2z" fill="#000" stroke="#000" stroke-miterlimit="10"/><path d="M14.801 7.8c-.2 0-.333-.133-.333-.333V4.333c0-1.666-1.4-3.066-3.067-3.066-1.666 0-3.066 1.4-3.066 3.066v3.134c0 .2-.134.333-.334.333s-.333-.133-.333-.333V4.333c.067-2 1.667-3.666 3.733-3.666a3.656 3.656 0 0 1 3.667 3.666v3.134c0 .2-.133.333-.267.333z" fill="#000" stroke="#000" stroke-miterlimit="10"/></svg>